<?xml version="1.0" encoding="utf-8"?>
<svg width="28px" height="25px" viewBox="0 0 28 25" version="1.1" xmlns:xlink="http://www.w3.org/1999/xlink" xmlns="http://www.w3.org/2000/svg">
  <defs>
    <filter id="filter_1">
      <feColorMatrix in="SourceGraphic" type="matrix" values="0 0 0 0 0.98039216 0 0 0 0 0.39215687 0 0 0 0 0 0 0 0 1 0" />
    </filter>
    <path d="M0 0L7.13001 0L7.13001 23.5912L0 23.5912L0 0Z" transform="translate(7.916903E-06 0.0427)" id="path_1" />
    <path d="M0 0L7.57546 0L7.57546 23.8304L0 23.8304L0 0Z" id="path_2" />
    <clipPath id="mask_1">
      <use xlink:href="#path_1" />
    </clipPath>
    <clipPath id="mask_2">
      <use xlink:href="#path_2" />
    </clipPath>
  </defs>
  <g id="Group-25" filter="url(#filter_1)">
    <path d="M6.4416 3.2214C6.4416 4.5409 5.648 5.6748 4.5124 6.1729C4.1168 6.3462 3.6805 6.4422 3.2208 6.4422C2.5966 6.4422 2.0136 6.2648 1.5202 5.9564C0.6074 5.3886 0 4.3757 0 3.2214C0 2.0817 0.5917 1.0804 1.4842 0.5085C1.9851 0.1867 2.5814 0 3.2208 0C3.8451 0 4.428 0.1774 4.9214 0.4858C5.8343 1.0536 6.4416 2.0665 6.4416 3.2214" transform="translate(10.588867 8.78067)" id="Fill-1" fill="#FA6400" fill-rule="evenodd" stroke="none" />
    <path d="M2.72569 8.5989C1.91749 8.269 1.21619 7.6482 0.733885 6.8822C0.249785 6.1153 -0.00791473 5.1953 0.000185269 4.2784C0.00178527 3.3611 0.276785 2.4447 0.772185 1.6852C1.26619 0.9265 1.97769 0.3166 2.79139 0C2.13319 0.5679 1.60579 1.2253 1.24869 1.9578C0.890285 2.6878 0.701785 3.4835 0.698185 4.2837C0.691985 5.0837 0.865285 5.8824 1.21289 6.6179C1.55819 7.3561 2.07589 8.0215 2.72569 8.5989" transform="translate(8.422852 7.682266)" id="Fill-3" fill="#424242" fill-rule="evenodd" stroke="none" />
    <path d="M0.5103 0C1.3539 0.353 2.0809 1.0171 2.5646 1.8343C3.0503 2.6521 3.2857 3.6301 3.2265 4.59L3.2227 4.6801L3.2124 4.7698L3.1916 4.949C3.1812 5.069 3.155 5.1867 3.1328 5.3049C3.1199 5.3637 3.1106 5.4231 3.0947 5.4812L3.0463 5.655L2.9974 5.8284L2.9357 5.9977C2.7702 6.4481 2.5398 6.8736 2.2517 7.2518C1.6782 8.0082 0.8794 8.5855 0 8.838C0.7496 8.3197 1.3641 7.6812 1.797 6.9442C2.232 6.2101 2.4808 5.3873 2.5296 4.5503C2.5807 3.7122 2.4268 2.8652 2.0791 2.0865C1.7335 1.305 1.1953 0.6006 0.5103 0" transform="translate(15.959961 7.7223816)" id="Fill-5" fill="#424242" fill-rule="evenodd" stroke="none" />
    <path d="M0.6318 0C1.7818 0.5747 2.7604 1.5256 3.4101 2.6728C3.7359 3.2462 3.9795 3.8695 4.1312 4.5154C4.2831 5.1616 4.3426 5.8298 4.3087 6.4932C4.3074 6.6596 4.2834 6.8244 4.2657 6.9896C4.2554 7.072 4.2494 7.155 4.2354 7.2369L4.1898 7.4819L4.1424 7.7266L4.0783 7.9674L4.0136 8.2079C3.9913 8.2877 3.9604 8.3651 3.9337 8.4437C3.7176 9.0709 3.4137 9.6669 3.0321 10.2049C2.2716 11.2818 1.2028 12.1314 0 12.5866C1.0924 11.9134 2.0061 11.0119 2.6504 9.9529C3.2974 8.8967 3.6673 7.6896 3.7277 6.4645C3.7929 5.2385 3.5445 3.9996 3.0063 2.8845C2.471 1.7668 1.6511 0.7792 0.6318 0" transform="translate(16.98169 5.884491)" id="Fill-7" fill="#616161" fill-rule="evenodd" stroke="none" />
    <path d="M3.6862 12.348C2.5715 11.7963 1.6175 10.8878 0.968996 9.7901C0.643896 9.2413 0.395296 8.6443 0.231896 8.0237C0.193996 7.8679 0.149196 7.7132 0.125796 7.5542C0.0999965 7.3959 0.0640965 7.2386 0.0511965 7.0784C0.0119965 6.7594 -0.00230355 6.4379 0.000296455 6.1168L0.00909645 5.876C0.0126965 5.7958 0.0129965 5.7153 0.0235965 5.6355L0.0487965 5.3959L0.0614965 5.276C0.0652965 5.236 0.0698965 5.1961 0.0780965 5.1567C0.107696 4.9988 0.133096 4.8401 0.166596 4.6831C0.206396 4.5275 0.242796 4.371 0.286396 4.2167C0.468596 3.6011 0.734697 3.0113 1.0773 2.4728C1.7594 1.3951 2.7415 0.5158 3.8736 0C2.8667 0.7255 2.0399 1.6485 1.4718 2.7044C0.900796 3.7578 0.596396 4.9388 0.581796 6.1255C0.562896 7.3123 0.831196 8.501 1.369 9.5713C1.9039 10.6441 2.7021 11.5918 3.6862 12.348" transform="translate(6.319092 5.771637)" id="Fill-9" fill="#616161" fill-rule="evenodd" stroke="none" />
    <path d="M4.64849 16.096C3.22609 15.3242 2.02039 14.1266 1.20689 12.6973C0.794793 11.9849 0.490193 11.2104 0.283493 10.4113C0.0792926 9.611 -0.0131074 8.7823 0.00149259 7.9562L0.0126926 7.6464L0.0182926 7.4916C0.0215926 7.44 0.0284926 7.3887 0.0333926 7.3373L0.0656926 7.029C0.0771926 6.9263 0.0841926 6.823 0.105193 6.7216L0.159693 6.4165L0.187093 6.2639L0.200693 6.1877L0.219393 6.1125L0.294293 5.8117C0.320693 5.7119 0.341093 5.6105 0.373693 5.5124C0.607593 4.7203 0.946493 3.9593 1.38499 3.2628C2.25339 1.8654 3.50559 0.7153 4.95739 0C3.60429 0.8839 2.47729 2.0699 1.69699 3.4486C1.30989 4.139 1.00439 4.8726 0.798293 5.6332C0.747693 5.8234 0.707093 6.0163 0.660693 6.2075L0.643793 6.2793L0.631793 6.3522L0.607993 6.4979L0.559893 6.7891C0.540793 6.8857 0.534393 6.9841 0.524093 7.0819L0.494593 7.3755C0.490093 7.4245 0.483793 7.4733 0.480793 7.5224L0.476193 7.67L0.466793 7.965C0.435093 9.5387 0.796293 11.1184 1.52469 12.5243C2.25059 13.9317 3.33049 15.1605 4.64849 16.096" transform="translate(4.2141113 3.8615265)" id="Fill-11" fill="#7A7A7A" fill-rule="evenodd" stroke="none" />
    <path d="M0.7546 0C2.2121 0.7952 3.4419 2.035 4.2563 3.5131C4.6689 4.2499 4.9683 5.0501 5.1636 5.8742C5.2208 6.0787 5.2482 6.2893 5.2859 6.4979L5.3128 6.6546C5.3228 6.7067 5.3252 6.7598 5.3317 6.8124L5.3651 7.1287L5.3815 7.2869C5.3871 7.3396 5.3862 7.3928 5.389 7.4457L5.4001 7.7635C5.404 7.8695 5.4086 7.9754 5.4048 8.0814C5.4024 8.1875 5.4036 8.2936 5.3964 8.3994C5.3256 10.0953 4.7674 11.7681 3.8129 13.161C2.8654 14.5579 1.5261 15.6799 0 16.3345C1.4365 15.5061 2.6507 14.3432 3.5086 12.9627C4.365 11.5829 4.8635 9.993 4.9317 8.3782C4.9632 7.5714 4.9021 6.7602 4.7346 5.9692C4.5719 5.177 4.2954 4.4094 3.9361 3.6817C3.2098 2.2282 2.1077 0.9589 0.7546 0" transform="translate(18.002197 4.0460205)" id="Fill-13" fill="#7A7A7A" fill-rule="evenodd" stroke="none" />
    <path d="M0.8768 0C2.6419 1.0157 4.1223 2.5443 5.1035 4.3525C5.5985 5.2546 5.9622 6.2289 6.1961 7.233C6.2642 7.4821 6.2995 7.738 6.3431 7.9922C6.3931 8.2456 6.4104 8.5034 6.438 8.7598C6.4714 9.016 6.4711 9.2744 6.4823 9.532C6.4956 9.7897 6.4895 10.0479 6.4806 10.3057C6.4361 11.3367 6.2515 12.3619 5.9339 13.3433C5.6122 14.3229 5.1647 15.2619 4.5924 16.1174C3.457 17.8333 1.8484 19.2278 0 20.083C1.7806 19.0978 3.2953 17.6729 4.3636 15.9695C4.8953 15.1171 5.3243 14.2013 5.619 13.2431C5.918 12.2868 6.0944 11.2919 6.1321 10.2907C6.2165 8.2889 5.7829 6.2672 4.8636 4.4793C3.9483 2.6894 2.5636 1.1385 0.8768 0" transform="translate(19.02295 2.2075348)" id="Fill-15" fill="#8C8C8C" fill-rule="evenodd" stroke="none" />
    <path d="M5.61229 19.8439C3.88229 18.8515 2.42549 17.3647 1.44509 15.6045C0.950593 14.7265 0.581693 13.7775 0.336493 12.7982C0.0924927 11.8176 -0.00950732 10.8046 0.000692681 9.7946C0.0250927 8.7845 0.177593 7.7767 0.461993 6.8072C0.750193 5.8395 1.16019 4.9071 1.69299 4.0515C2.74989 2.3356 4.27139 0.914 6.04399 0C4.34469 1.0408 2.91719 2.4897 1.92659 4.1917C1.43389 5.0434 1.04149 5.9524 0.779693 6.8987C0.512893 7.8432 0.367693 8.8212 0.349493 9.8021C0.309093 11.7638 0.765493 13.7334 1.68359 15.4751C2.59819 17.2187 3.96059 18.7287 5.61229 19.8439" transform="translate(2.1071777 1.9521179)" id="Fill-17" fill="#8C8C8C" fill-rule="evenodd" stroke="none" />
    <g id="Group-21">
      <path d="M0 0L7.13001 0L7.13001 23.5912L0 23.5912L0 0Z" transform="translate(7.916903E-06 0.0427)" id="Clip-20" fill="none" fill-rule="evenodd" stroke="none" />
      <g clip-path="url(#mask_1)">
        <path d="M6.57671 23.5913L6.19881 23.3574C6.07551 23.2752 5.95101 23.1946 5.82851 23.1111C5.70801 23.0246 5.58621 22.94 5.46721 22.8513C5.34981 22.7606 5.22991 22.6729 5.11451 22.5797C4.65001 22.2099 4.20901 21.8098 3.79511 21.3825C2.97121 20.5244 2.25911 19.5573 1.68181 18.514C1.10201 17.4717 0.669512 16.3476 0.385012 15.188C0.102712 14.0275 -0.0228879 12.8293 0.00341208 11.6353C0.0329121 10.4413 0.214912 9.2505 0.551012 8.1043C0.889912 6.9596 1.37431 5.8568 2.00231 4.8427C2.62781 3.8274 3.38441 2.8946 4.24741 2.0757C4.68091 1.6683 5.14031 1.2892 5.62161 0.9416L5.98681 0.6869L6.35981 0.4443L6.74141 0.2159L7.13001 0L6.75051 0.2309L6.37891 0.4738L6.01451 0.7267L5.65841 0.9911C5.18961 1.3511 4.74461 1.7411 4.32671 2.1577C3.48701 2.9864 2.75441 3.9219 2.15551 4.9352C0.953212 6.9594 0.283712 9.2909 0.235912 11.6407C0.173212 13.9904 0.732312 16.3511 1.83851 18.4291C2.38941 19.4692 3.07771 20.4376 3.87771 21.3048C4.27561 21.7404 4.70201 22.1507 5.15341 22.5322C5.26561 22.6284 5.38231 22.7191 5.49661 22.8129C5.61231 22.9049 5.73161 22.9924 5.84881 23.0828C5.96761 23.1707 6.08861 23.256 6.20851 23.3428L6.57671 23.5913Z" transform="translate(7.916903E-06 0.0426)" id="Fill-19" fill="#C3C3C3" fill-rule="evenodd" stroke="none" />
      </g>
    </g>
    <g id="Group-24" transform="translate(20.043701 0.3695984)">
      <path d="M0 0L7.57546 0L7.57546 23.8304L0 23.8304L0 0Z" id="Clip-23" fill="none" fill-rule="evenodd" stroke="none" />
      <g clip-path="url(#mask_2)">
        <path d="M0.9989 0L1.3834 0.2385C1.5087 0.3223 1.6358 0.4038 1.7599 0.4896C1.8823 0.5779 2.0069 0.6633 2.1271 0.7547C2.2463 0.8474 2.3691 0.9356 2.4854 1.032C2.9572 1.4096 3.4046 1.8186 3.8238 2.2553C4.6582 3.1327 5.3766 4.122 5.9548 5.1892C6.5357 6.2553 6.9606 7.4057 7.2337 8.5897C7.5043 9.7749 7.6119 10.9964 7.5647 12.211C7.516 13.4261 7.3005 14.634 6.932 15.7921C6.5597 16.9488 6.0381 18.0583 5.3708 19.0724C4.706 20.0877 3.9081 21.0141 3.0037 21.8193C2.5496 22.2197 2.0696 22.5899 1.5679 22.9268C1.441 23.0088 1.3155 23.0929 1.1876 23.1731C1.0582 23.2509 0.9298 23.3303 0.7995 23.4065L0.4031 23.6251L0 23.8304L0.3946 23.6098L0.7814 23.3764L1.1613 23.1323C1.2864 23.0487 1.409 22.9613 1.5328 22.8761C2.0223 22.5264 2.4884 22.1448 2.927 21.7348C3.8084 20.9193 4.5822 19.9896 5.2202 18.9757C6.4996 16.9504 7.2416 14.5924 7.3323 12.2015C7.4368 9.8116 6.9043 7.3983 5.7973 5.2726C5.2457 4.2091 4.5512 3.2187 3.7408 2.3327C3.3377 1.8877 2.9051 1.4687 2.4464 1.0794C2.3334 0.98 2.2137 0.8888 2.0976 0.793C1.9806 0.6983 1.8587 0.6102 1.7395 0.518C1.6191 0.4277 1.4956 0.3415 1.3736 0.253L0.9989 0Z" id="Fill-22" fill="#C3C3C3" fill-rule="evenodd" stroke="none" />
      </g>
    </g>
  </g>
</svg>