<?xml version="1.0" encoding="utf-8"?>
<svg width="27px" height="28px" viewBox="0 0 27 28" version="1.1" xmlns:xlink="http://www.w3.org/1999/xlink" xmlns="http://www.w3.org/2000/svg">
  <defs>
    <filter id="filter_1">
      <feColorMatrix in="SourceGraphic" type="matrix" values="0 0 0 0 0.4117647 0 0 0 0 0.4862745 0 0 0 0 0.5411765 0 0 0 1 0" />
    </filter>
  </defs>
  <g id="prev_page" filter="url(#filter_1)">
    <path d="M2.199 0L24.201 0Q24.309 0 24.4165 0.0105888Q24.5241 0.0211776 24.63 0.0422532Q24.736 0.0633288 24.8393 0.0946882Q24.9427 0.126048 25.0425 0.167389Q25.1423 0.20873 25.2376 0.259655Q25.3329 0.31058 25.4227 0.370598Q25.5125 0.430617 25.596 0.49915Q25.6795 0.567683 25.7559 0.644072Q25.8323 0.720461 25.9009 0.803969Q25.9694 0.887477 26.0294 0.977301Q26.0894 1.06712 26.1403 1.1624Q26.1913 1.25767 26.2326 1.35748Q26.274 1.45729 26.3053 1.56066Q26.3367 1.66404 26.3577 1.77Q26.3788 1.87595 26.3894 1.98346Q26.4 2.09097 26.4 2.199L26.4 25.026Q26.4 25.134 26.3894 25.2415Q26.3788 25.3491 26.3577 25.455Q26.3367 25.561 26.3053 25.6643Q26.274 25.7677 26.2326 25.8675Q26.1913 25.9673 26.1403 26.0626Q26.0894 26.1579 26.0294 26.2477Q25.9694 26.3375 25.9008 26.421Q25.8323 26.5045 25.7559 26.5809Q25.6795 26.6573 25.596 26.7259Q25.5125 26.7944 25.4227 26.8544Q25.3329 26.9144 25.2376 26.9653Q25.1423 27.0163 25.0425 27.0576Q24.9427 27.099 24.8393 27.1303Q24.736 27.1617 24.63 27.1827Q24.5241 27.2038 24.4165 27.2144Q24.309 27.225 24.201 27.225L2.199 27.225Q2.09097 27.225 1.98346 27.2144Q1.87595 27.2038 1.77 27.1827Q1.66404 27.1617 1.56066 27.1303Q1.45729 27.099 1.35748 27.0576Q1.25767 27.0163 1.1624 26.9653Q1.06712 26.9144 0.977301 26.8544Q0.887477 26.7944 0.803969 26.7258Q0.720461 26.6573 0.644072 26.5809Q0.567683 26.5045 0.49915 26.421Q0.430617 26.3375 0.370598 26.2477Q0.31058 26.1579 0.259655 26.0626Q0.20873 25.9673 0.167389 25.8675Q0.126048 25.7677 0.0946882 25.6643Q0.0633288 25.561 0.0422532 25.455Q0.0211776 25.3491 0.0105888 25.2415Q0 25.134 0 25.026L0 2.199Q0 2.09097 0.0105888 1.98346Q0.0211776 1.87595 0.0422532 1.77Q0.0633288 1.66404 0.0946882 1.56066Q0.126048 1.45729 0.167389 1.35748Q0.20873 1.25767 0.259655 1.1624Q0.31058 1.06712 0.370598 0.977301Q0.430617 0.887477 0.49915 0.803969Q0.567683 0.720461 0.644072 0.644072Q0.720461 0.567683 0.803969 0.49915Q0.887477 0.430617 0.977301 0.370598Q1.06712 0.31058 1.1624 0.259655Q1.25767 0.20873 1.35748 0.167389Q1.45729 0.126048 1.56066 0.0946882Q1.66404 0.0633288 1.77 0.0422532Q1.87595 0.0211776 1.98346 0.0105888Q2.09097 0 2.199 0Z" id="bg" fill="none" fill-rule="evenodd" stroke="none" />
    <g id="ic_prev_page" transform="translate(8.199951 9.074951)">
      <g id="ic_prev_page">
        <path d="M0 0L8.8 0L8.8 9.075L0 9.075L0 0Z" id="box" fill="none" fill-rule="evenodd" stroke="none" />
        <path d="M1.30945 1.76317e-14L0 1.41797L2.88111 4.5375L0 7.65703L1.30945 9.075L5.5 4.5375L1.30945 1.76317e-14Z" transform="matrix(-1 0 0 1 7.7 0)" id="ic_prev_page" fill="#FFFFFF" fill-rule="evenodd" stroke="none" />
      </g>
    </g>
  </g>
</svg>