<?xml version="1.0" encoding="utf-8"?>
<svg width="12px" height="12px" viewBox="0 0 12 12" version="1.1" xmlns:xlink="http://www.w3.org/1999/xlink" xmlns="http://www.w3.org/2000/svg">
  <g id="ic_sorted-Z-A-Copy">
    <g id="ic_sorted">
      <path d="M0 0L12 0L12 12L0 12L0 0Z" id="box" fill="none" fill-rule="evenodd" stroke="none" />
      <path d="M0 0.499Q0 0.449853 0.00958814 0.40165Q0.0191763 0.353447 0.0379841 0.308041Q0.0567919 0.262635 0.0840967 0.22177Q0.111401 0.180906 0.146154 0.146154Q0.180906 0.111401 0.22177 0.0840967Q0.262635 0.0567919 0.308041 0.0379841Q0.353447 0.0191763 0.40165 0.00958814Q0.449853 0 0.499 0L11.501 0Q11.5501 0 11.5983 0.00958814Q11.6466 0.0191763 11.692 0.0379841Q11.7374 0.0567919 11.7782 0.0840967Q11.8191 0.111401 11.8538 0.146154Q11.8886 0.180906 11.9159 0.22177Q11.9432 0.262635 11.962 0.308041Q11.9808 0.353447 11.9904 0.40165Q12 0.449853 12 0.499L12 0.501Q12 0.550147 11.9904 0.59835Q11.9808 0.646553 11.962 0.691959Q11.9432 0.737365 11.9159 0.778229Q11.8886 0.819094 11.8538 0.853846Q11.8191 0.888599 11.7782 0.915903Q11.7374 0.943208 11.692 0.962016Q11.6466 0.980824 11.5983 0.990412Q11.5501 1 11.501 1L0.499 1Q0.449853 1 0.40165 0.990412Q0.353447 0.980824 0.308041 0.962016Q0.262635 0.943208 0.22177 0.915903Q0.180906 0.888599 0.146154 0.853846Q0.111401 0.819094 0.0840967 0.778229Q0.0567919 0.737365 0.0379841 0.691959Q0.0191763 0.646553 0.00958814 0.59835Q0 0.550147 0 0.501L0 0.499ZM2 3.499Q2 3.44985 2.00959 3.40165Q2.01918 3.35345 2.03798 3.30804Q2.05679 3.26263 2.0841 3.22177Q2.1114 3.18091 2.14615 3.14615Q2.18091 3.1114 2.22177 3.0841Q2.26263 3.05679 2.30804 3.03798Q2.35345 3.01918 2.40165 3.00959Q2.44985 3 2.499 3L9.501 3Q9.55015 3 9.59835 3.00959Q9.64655 3.01918 9.69196 3.03798Q9.73736 3.05679 9.77823 3.0841Q9.81909 3.1114 9.85385 3.14615Q9.8886 3.18091 9.9159 3.22177Q9.94321 3.26263 9.96202 3.30804Q9.98082 3.35345 9.99041 3.40165Q10 3.44985 10 3.499L10 3.501Q10 3.55015 9.99041 3.59835Q9.98082 3.64655 9.96202 3.69196Q9.94321 3.73736 9.9159 3.77823Q9.8886 3.81909 9.85385 3.85385Q9.81909 3.8886 9.77823 3.9159Q9.73736 3.94321 9.69196 3.96202Q9.64655 3.98082 9.59835 3.99041Q9.55015 4 9.501 4L2.499 4Q2.44985 4 2.40165 3.99041Q2.35345 3.98082 2.30804 3.96202Q2.26263 3.94321 2.22177 3.9159Q2.18091 3.8886 2.14615 3.85385Q2.1114 3.81909 2.0841 3.77823Q2.05679 3.73736 2.03798 3.69196Q2.01918 3.64655 2.00959 3.59835Q2 3.55015 2 3.501L2 3.499ZM4 6.499Q4 6.44985 4.00959 6.40165Q4.01918 6.35345 4.03798 6.30804Q4.05679 6.26263 4.0841 6.22177Q4.1114 6.18091 4.14615 6.14615Q4.18091 6.1114 4.22177 6.0841Q4.26263 6.05679 4.30804 6.03798Q4.35345 6.01918 4.40165 6.00959Q4.44985 6 4.499 6L7.501 6Q7.55015 6 7.59835 6.00959Q7.64655 6.01918 7.69196 6.03798Q7.73736 6.05679 7.77823 6.0841Q7.81909 6.1114 7.85385 6.14615Q7.8886 6.18091 7.9159 6.22177Q7.94321 6.26263 7.96201 6.30804Q7.98082 6.35345 7.99041 6.40165Q8 6.44985 8 6.499L8 6.501Q8 6.55015 7.99041 6.59835Q7.98082 6.64655 7.96201 6.69196Q7.94321 6.73736 7.9159 6.77823Q7.8886 6.81909 7.85385 6.85385Q7.81909 6.8886 7.77823 6.9159Q7.73736 6.94321 7.69196 6.96202Q7.64655 6.98082 7.59835 6.99041Q7.55015 7 7.501 7L4.499 7Q4.44985 7 4.40165 6.99041Q4.35345 6.98082 4.30804 6.96202Q4.26263 6.94321 4.22177 6.9159Q4.18091 6.8886 4.14615 6.85385Q4.1114 6.81909 4.0841 6.77823Q4.05679 6.73736 4.03798 6.69196Q4.01918 6.64655 4.00959 6.59835Q4 6.55015 4 6.501L4 6.499Z" transform="translate(0 2)" id="ic_sorted" fill="#53565A" fill-rule="evenodd" stroke="none" />
    </g>
  </g>
</svg>