<svg width="31" height="37" viewBox="0 0 31 37" fill="none" xmlns="http://www.w3.org/2000/svg">
<path fill-rule="evenodd" clip-rule="evenodd" d="M3.78741 33.8833C5.24177 33.8833 6.46597 32.7948 6.63581 31.3503L6.96235 28.5755C7.0265 28.0297 7.32691 27.544 7.78638 27.2429C8.2463 26.9413 8.81242 26.8598 9.33886 27.0189C10.1637 27.2681 11.0179 27.3944 11.8775 27.3944C14.2356 27.3944 16.4754 26.4599 18.1845 24.7631C19.9027 23.057 20.8491 20.8053 20.8491 18.4228C20.8491 13.4759 16.8245 9.45122 11.8775 9.45122C6.93052 9.45122 2.90588 13.4759 2.90588 18.4228C2.90588 18.5588 2.90904 18.6963 2.91525 18.8313L2.91632 18.8637L3.25538 33.3637C3.26215 33.6526 3.4984 33.8833 3.78741 33.8833ZM4.26065 36.761H2.35811C1.3095 36.761 0.436435 35.9081 0.411946 34.8598L0.0398218 18.9465C0.0320916 18.7731 0.0281982 18.597 0.0281982 18.4228C0.0281982 11.8891 5.34379 6.57354 11.8775 6.57354C18.4112 6.57354 23.7268 11.8891 23.7268 18.4228C23.7268 21.5779 22.4785 24.5548 20.212 26.8052C17.9603 29.0409 15.0004 30.2721 11.8775 30.2721C11.3231 30.2721 10.7705 30.2326 10.2234 30.154C9.92721 30.1115 9.6545 30.321 9.61946 30.6181L9.43851 32.1566C9.12981 34.7815 6.90378 36.761 4.26065 36.761Z" fill="#0D2F48"/>
<mask id="mask0" mask-type="alpha" maskUnits="userSpaceOnUse" x="6" y="12" width="12" height="12">
<path fill-rule="evenodd" clip-rule="evenodd" d="M6.26318 18.3383V22.3895C6.26318 23.2682 6.97465 23.9807 7.8542 23.9807H11.905C15.017 23.9807 17.5482 21.4493 17.5482 18.3383C17.5482 15.2271 15.017 12.6957 11.905 12.6957C8.79419 12.6957 6.26318 15.2271 6.26318 18.3383ZM9.44523 18.3383C9.44523 16.9816 10.5486 15.8782 11.905 15.8782C13.2614 15.8782 14.3661 16.9816 14.3661 18.3383C14.3661 19.6948 13.2614 20.7982 11.905 20.7982C10.5486 20.7982 9.44523 19.6948 9.44523 18.3383Z" fill="white"/>
</mask>
<g mask="url(#mask0)">
<path fill-rule="evenodd" clip-rule="evenodd" d="M5.98108 24.2628H17.8304V12.4135H5.98108V24.2628Z" fill="#0D2F48"/>
</g>
<mask id="mask1" mask-type="alpha" maskUnits="userSpaceOnUse" x="12" y="0" width="19" height="18">
<path fill-rule="evenodd" clip-rule="evenodd" d="M12.6957 0.424995V2.54021C12.6957 2.98557 12.8866 3.17888 13.1326 3.19891C20.5312 3.79854 26.4375 9.704 27.0371 17.102C27.0571 17.3479 27.2548 17.5388 27.5019 17.5388H29.8059C30.0508 17.5388 30.2518 17.3269 30.2351 17.0824C29.6139 7.93829 22.2974 0.622144 13.152 0.000959241C13.1423 0.000338564 13.1326 1.25729e-08 13.123 1.25729e-08C12.8913 -5.64126e-05 12.6957 0.189814 12.6957 0.424995Z" fill="white"/>
</mask>
<g mask="url(#mask1)">
<path fill-rule="evenodd" clip-rule="evenodd" d="M12.4136 17.8209H30.5182V-0.282127H12.4136V17.8209Z" fill="#F8CA0F"/>
</g>
<mask id="mask2" mask-type="alpha" maskUnits="userSpaceOnUse" x="12" y="6" width="12" height="12">
<path fill-rule="evenodd" clip-rule="evenodd" d="M12.6957 6.79968V8.91162C12.6957 9.34604 12.8736 9.53393 13.1088 9.56627C17.0004 10.1028 20.0851 13.1877 20.6218 17.0788C20.6542 17.3138 20.8452 17.4918 21.0825 17.4918H23.3823C23.6313 17.4918 23.8354 17.2717 23.8092 17.0243C23.2189 11.4229 18.7645 6.96845 13.1634 6.37836C13.1487 6.37683 13.1341 6.3761 13.1197 6.3761C12.8905 6.3761 12.6957 6.56535 12.6957 6.79968Z" fill="white"/>
</mask>
<g mask="url(#mask2)">
<path fill-rule="evenodd" clip-rule="evenodd" d="M12.4136 17.7739H24.0936V6.09392H12.4136V17.7739Z" fill="#F8CA0F"/>
</g>
<path fill-rule="evenodd" clip-rule="evenodd" d="M23.3822 19.4949H21.0824C19.857 19.4949 18.8059 18.5738 18.6375 17.3524C18.2233 14.3503 15.8374 11.9645 12.8352 11.5506C12.1558 11.4572 11.5657 11.0983 11.1742 10.5401C10.8546 10.0845 10.6925 9.53665 10.6925 8.91163V6.79963C10.6925 6.11429 10.9854 5.45739 11.4961 4.99747C12.0068 4.53749 12.6906 4.31473 13.3722 4.38616C16.5369 4.71958 19.523 6.14702 21.7817 8.40572C24.0403 10.6644 25.4678 13.6506 25.8012 16.8143C25.873 17.4935 25.6505 18.1765 25.1908 18.6875C24.7291 19.2006 24.0699 19.4949 23.3822 19.4949Z" fill="white"/>
<mask id="mask3" mask-type="alpha" maskUnits="userSpaceOnUse" x="12" y="6" width="12" height="12">
<path fill-rule="evenodd" clip-rule="evenodd" d="M12.6957 6.79968V8.91162C12.6957 9.34604 12.8736 9.53393 13.1088 9.56627C17.0004 10.1028 20.0851 13.1877 20.6218 17.0788C20.6542 17.3138 20.8452 17.4918 21.0825 17.4918H23.3823C23.6313 17.4918 23.8354 17.2717 23.8092 17.0243C23.2189 11.4229 18.7645 6.96845 13.1634 6.37836C13.1487 6.37683 13.1341 6.3761 13.1197 6.3761C12.8905 6.3761 12.6957 6.56535 12.6957 6.79968Z" fill="white"/>
</mask>
<g mask="url(#mask3)">
<path fill-rule="evenodd" clip-rule="evenodd" d="M12.4136 17.7739H24.0936V6.09392H12.4136V17.7739Z" fill="#F8CA0F"/>
</g>
</svg>
