<?xml version="1.0" encoding="utf-8"?>
<svg width="16px" height="17px" viewBox="0 0 16 17" version="1.1" xmlns:xlink="http://www.w3.org/1999/xlink" xmlns="http://www.w3.org/2000/svg">
  <defs>
    <filter id="filter_1">
      <feColorMatrix in="SourceGraphic" type="matrix" values="0 0 0 0 1 0 0 0 0 1 0 0 0 0 1 0 0 0 1 0" />
    </filter>
    <path d="M0 0L15.886 0L15.886 15.8081L0 15.8081L0 0Z" transform="translate(2.8202655E-06 0.0019309823)" id="path_1" />
    <clipPath id="mask_1">
      <use xlink:href="#path_1" />
    </clipPath>
  </defs>
  <g id="Group-8" filter="url(#filter_1)">
    <g id="Group-3" transform="translate(0 0.0081)">
      <path d="M0 0L15.886 0L15.886 15.8081L0 15.8081L0 0Z" transform="translate(2.8202655E-06 0.0019309823)" id="Clip-2" fill="none" fill-rule="evenodd" stroke="none" />
      <g clip-path="url(#mask_1)">
        <path d="M11.4876 9.86955C11.4825 9.86985 11.4774 9.87015 11.4723 9.87045C11.4774 9.87015 11.4825 9.86985 11.4876 9.86955L11.4876 9.86955ZM3.34668 0.650056C2.98139 0.650056 2.28996 0.691626 1.88012 0.978796C1.74557 1.07308 1.52342 1.30365 1.30343 1.66804C1.12337 1.9663 0.880905 2.4638 0.748385 3.14006C0.614065 3.82557 0.617315 4.55809 0.758065 5.3173C0.928255 6.23531 1.30085 7.19344 1.86549 8.16507C3.18536 10.4363 5.237 12.1239 6.72572 13.1397C7.69512 13.8012 8.53366 14.254 9.06638 14.5174C9.76457 14.8626 10.2382 15.0324 10.4316 15.0729C10.9038 15.1718 11.7736 15.2194 12.6707 15.028C13.339 14.8855 14.2245 14.5613 14.648 13.8265C14.9655 13.2754 15.1091 12.8088 15.1737 12.5144C15.2369 12.2266 15.2404 12.0355 15.2337 11.9418C15.0142 11.8198 14.3557 11.5116 13.4599 11.1429C12.2374 10.6396 11.6904 10.4809 11.5466 10.4622C11.5444 10.4628 11.5421 10.4634 11.5399 10.4639C11.453 10.52 11.1292 10.7808 9.99696 11.9845C9.70851 12.2912 9.25951 12.3752 8.87965 12.1935C8.12162 11.8309 7.12324 11.314 6.12299 10.5288C4.7832 9.47701 3.8831 8.27704 3.44773 6.96224C3.28509 6.47106 3.42276 5.92293 3.79847 5.5658L5.39872 4.04464C5.42365 4.02112 5.42901 3.98401 5.41177 3.95439L3.5108 0.687616C3.49805 0.665696 3.47454 0.651736 3.44945 0.651176C3.41919 0.650506 3.38469 0.650056 3.34668 0.650056L3.34668 0.650056ZM11.399 15.8081C10.9549 15.8081 10.5695 15.7659 10.2983 15.7091C9.72293 15.5886 8.12047 14.8783 6.35934 13.6766C4.81516 12.623 2.68452 10.8681 1.3035 8.49167C0.701305 7.45542 0.302765 6.42727 0.118955 5.43578C-0.0367748 4.59572 -0.0396148 3.78128 0.110525 3.01507C0.229855 2.40609 0.449925 1.82413 0.746975 1.3321C0.981695 0.943296 1.25876 0.620496 1.50712 0.446466C2.0951 0.034476 2.98543 -0.00924398 3.46385 0.00133602C3.71359 0.00687602 3.94685 0.144576 4.07261 0.360706L5.97359 3.62747C6.14345 3.91938 6.09064 4.28506 5.84524 4.517L4.2463 6.03691C4.05212 6.2215 3.98087 6.50451 4.06477 6.75791C4.45929 7.94931 5.28681 9.046 6.52436 10.0175C7.47471 10.7636 8.43217 11.2589 9.16013 11.6071C9.28368 11.6662 9.4297 11.6389 9.5235 11.5392C9.92899 11.1081 10.2556 10.7708 10.522 10.5081C10.7088 10.3239 10.8642 10.1785 10.9838 10.0761C11.1641 9.92155 11.277 9.8515 11.3851 9.83105C11.527 9.78354 11.7272 9.80624 12.3262 10.0118C12.7902 10.1711 13.3295 10.3864 13.7002 10.5389C14.1772 10.7351 14.6624 10.946 15.0315 11.1175C15.222 11.206 15.3754 11.281 15.4875 11.3406C15.6668 11.4358 15.7558 11.4953 15.8087 11.5961C15.9472 11.8598 15.8656 12.3719 15.8241 12.5798C15.7534 12.934 15.5897 13.4941 15.2111 14.151C14.7815 14.8967 13.9499 15.4198 12.8063 15.6637C12.3158 15.7684 11.8297 15.8081 11.399 15.8081L11.399 15.8081Z" transform="translate(2.8202655E-06 0.0019309823)" id="Fill-1" fill="#231F20" fill-rule="evenodd" stroke="none" />
      </g>
    </g>
    <path d="M0.420279 0.841816C0.636939 0.835526 0.853469 0.846596 1.06835 0.874976L0.956698 0.859976C1.3 0.906736 1.6356 0.997796 1.95529 1.13139C1.92185 1.11728 1.8884 1.10316 1.85496 1.08905C2.16696 1.22095 2.46037 1.39218 2.72893 1.59862C2.70059 1.57673 2.67226 1.55483 2.64393 1.53294C2.9103 1.73951 3.1498 1.97849 3.35674 2.24459C3.33484 2.21625 3.31295 2.18792 3.29106 2.15958C3.49674 2.42637 3.66755 2.71784 3.79953 3.02777C3.78542 2.99433 3.77131 2.96089 3.75719 2.92744C3.89321 3.25051 3.98575 3.58994 4.033 3.93726L4.018 3.82561C4.03869 3.98242 4.05025 4.14008 4.05266 4.29823C4.05431 4.40695 4.09836 4.5179 4.17568 4.59522C4.24852 4.66806 4.36804 4.72292 4.47266 4.71824C4.69735 4.70817 4.89625 4.53361 4.89266 4.29823C4.87929 3.4207 4.60374 2.53967 4.08586 1.82814C3.79506 1.4286 3.45352 1.0881 3.05293 0.798626C2.69265 0.538296 2.28525 0.340486 1.86255 0.204326C1.40069 0.0555463 0.905098 -0.0122638 0.420279 0.00181625C0.310649 0.00499625 0.201649 0.0464763 0.123299 0.124826C0.0504485 0.197676 -0.00440148 0.317196 0.000278517 0.421816C0.00514852 0.530436 0.0408285 0.643096 0.123299 0.718796C0.204089 0.792976 0.307699 0.845086 0.420279 0.841816" transform="translate(7.9129844 3.3276727)" id="Fill-4" fill="#231F20" fill-rule="evenodd" stroke="none" />
    <path d="M0.42028 0.861048C0.89036 0.824138 1.36323 0.837028 1.83059 0.899658C1.79337 0.894658 1.75615 0.889658 1.71893 0.884658C2.29139 0.962788 2.85187 1.11545 3.38461 1.33912C3.35116 1.32501 3.31772 1.31089 3.28427 1.29678C3.80582 1.51729 4.29694 1.80458 4.74536 2.15028C4.71703 2.12839 4.6887 2.10649 4.66036 2.0846C5.10528 2.42941 5.50599 2.82904 5.85092 3.27389C5.82903 3.24556 5.80714 3.21722 5.78525 3.18889C6.12879 3.63423 6.41418 4.12213 6.63387 4.6399C6.61976 4.60646 6.60564 4.57301 6.59153 4.53957C6.81781 5.07649 6.97215 5.64168 7.05095 6.21896C7.04595 6.18174 7.04095 6.14453 7.03595 6.10731C7.06092 6.29352 7.07815 6.4806 7.08762 6.66824C7.09322 6.77927 7.13064 6.88524 7.21063 6.96523C7.28348 7.03807 7.40299 7.09292 7.50762 7.08824C7.61624 7.08337 7.72889 7.0477 7.8046 6.96523C7.87783 6.88545 7.93325 6.77983 7.92762 6.66824C7.89201 5.96267 7.75736 5.2588 7.51219 4.5957C7.38403 4.24907 7.23195 3.90977 7.05234 3.58667C6.86956 3.25787 6.65629 2.95033 6.42485 2.65414C5.96374 2.06403 5.3995 1.55591 4.77538 1.14296C4.17046 0.742708 3.49376 0.439168 2.79424 0.247908C2.10778 0.0602183 1.38486 -0.0236217 0.67371 0.00572833C0.58914 0.00921833 0.50466 0.0144183 0.42028 0.0210483C0.30748 0.0299083 0.20544 0.0619183 0.12329 0.144058C0.0504496 0.216908 -0.00441038 0.336428 0.000279621 0.441048C0.00513962 0.549668 0.0408196 0.662328 0.12329 0.738038C0.2017 0.810008 0.31009 0.869698 0.42028 0.861048" transform="translate(7.2053413 1.2895347)" id="Fill-6" fill="#231F20" fill-rule="evenodd" stroke="none" />
  </g>
</svg>